<svg viewBox="0 0 115 32" fill="none" xmlns="http://www.w3.org/2000/svg">
  <path
    d="M0 6C0 2.68629 2.68629 0 6 0H109C112.314 0 115 2.68629 115 6V26C115 29.3137 112.314 32 109 32H6C2.68629 32 0 29.3137 0 26V6Z"
    fill="black" />
  <path
    d="M40.3371 7.88268C40.3371 8.5774 40.1244 9.1338 39.7055 9.54876C39.2238 10.0407 38.5964 10.2882 37.8276 10.2882C37.0928 10.2882 36.4655 10.0365 35.9508 9.54044C35.4351 9.03708 35.1777 8.41932 35.1777 7.67988C35.1777 6.94044 35.4351 6.32268 35.9508 5.82348C36.4655 5.32324 37.0928 5.07156 37.8276 5.07156C38.1934 5.07156 38.5422 5.1454 38.875 5.28268C39.2068 5.421 39.4769 5.6082 39.6725 5.83908L39.228 6.27796C38.8867 5.8838 38.422 5.68932 37.8276 5.68932C37.2917 5.68932 36.827 5.87236 36.4325 6.24156C36.0422 6.6118 35.8466 7.09124 35.8466 7.67988C35.8466 8.26852 36.0422 8.75212 36.4325 9.12236C36.827 9.4874 37.2917 9.6746 37.8276 9.6746C38.3965 9.6746 38.875 9.4874 39.2525 9.1182C39.5013 8.8738 39.6427 8.53684 39.68 8.10628H37.8276V7.50516H40.2988C40.3286 7.63516 40.3371 7.761 40.3371 7.88268Z"
    fill="white" stroke="white" stroke-width="0.16" stroke-miterlimit="10" />
  <path
    d="M44.2577 5.7985H41.9364V7.3793H44.0291V7.98042H41.9364V9.56122H44.2577V10.1738H41.2793V5.18594H44.2577V5.7985Z"
    fill="white" stroke="white" stroke-width="0.16" stroke-miterlimit="10" />
  <path d="M47.0246 10.1738H46.3674V5.7985H44.9436V5.18594H48.4495V5.7985H47.0246V10.1738Z" fill="white" stroke="white"
    stroke-width="0.16" stroke-miterlimit="10" />
  <path d="M50.9867 10.1738V5.18594H51.6428V10.1738H50.9867Z" fill="white" stroke="white" stroke-width="0.16"
    stroke-miterlimit="10" />
  <path d="M54.5509 10.1738H53.8991V5.7985H52.47V5.18594H55.9801V5.7985H54.5509V10.1738Z" fill="white" stroke="white"
    stroke-width="0.16" stroke-miterlimit="10" />
  <path
    d="M62.6176 9.53212C62.1146 10.0365 61.4915 10.2882 60.7482 10.2882C60.0007 10.2882 59.3776 10.0365 58.8746 9.53212C58.3727 9.02876 58.1228 8.411 58.1228 7.67988C58.1228 6.94876 58.3727 6.331 58.8746 5.82764C59.3776 5.32324 60.0007 5.07156 60.7482 5.07156C61.4872 5.07156 62.1104 5.32324 62.6133 5.8318C63.1195 6.33932 63.3694 6.95292 63.3694 7.67988C63.3694 8.411 63.1195 9.02876 62.6176 9.53212ZM59.3605 9.11404C59.7391 9.4874 60.1995 9.6746 60.7482 9.6746C61.2927 9.6746 61.7573 9.4874 62.1316 9.11404C62.5091 8.74068 62.7005 8.26124 62.7005 7.67988C62.7005 7.09852 62.5091 6.61908 62.1316 6.24572C61.7573 5.87236 61.2927 5.68516 60.7482 5.68516C60.1995 5.68516 59.7391 5.87236 59.3605 6.24572C58.9831 6.61908 58.7917 7.09852 58.7917 7.67988C58.7917 8.26124 58.9831 8.74068 59.3605 9.11404Z"
    fill="white" stroke="white" stroke-width="0.16" stroke-miterlimit="10" />
  <path
    d="M64.2914 10.1738V5.18594H65.0889L67.5686 9.06514H67.5973L67.5686 8.10626V5.18594H68.2247V10.1738H67.5399L64.9432 6.10322H64.9145L64.9432 7.06626V10.1738H64.2914Z"
    fill="white" stroke="white" stroke-width="0.16" stroke-miterlimit="10" />
  <path
    d="M57.9612 17.4581C55.9631 17.4581 54.3309 18.9453 54.3309 20.9972C54.3309 23.0325 55.9631 24.5353 57.9612 24.5353C59.9635 24.5353 61.5957 23.0325 61.5957 20.9972C61.5957 18.9453 59.9635 17.4581 57.9612 17.4581ZM57.9612 23.1417C56.8649 23.1417 55.9217 22.2567 55.9217 20.9972C55.9217 19.7211 56.8649 18.8517 57.9612 18.8517C59.0575 18.8517 60.0049 19.7211 60.0049 20.9972C60.0049 22.2567 59.0575 23.1417 57.9612 23.1417ZM50.0403 17.4581C48.038 17.4581 46.41 18.9453 46.41 20.9972C46.41 23.0325 48.038 24.5353 50.0403 24.5353C52.0415 24.5353 53.6706 23.0325 53.6706 20.9972C53.6706 18.9453 52.0415 17.4581 50.0403 17.4581ZM50.0403 23.1417C48.9429 23.1417 47.9965 22.2567 47.9965 20.9972C47.9965 19.7211 48.9429 18.8517 50.0403 18.8517C51.1366 18.8517 52.0798 19.7211 52.0798 20.9972C52.0798 22.2567 51.1366 23.1417 50.0403 23.1417ZM40.6147 18.5428V20.0467H44.2865C44.1791 20.887 43.892 21.5047 43.4518 21.9353C42.9158 22.4553 42.0811 23.0325 40.6147 23.0325C38.3551 23.0325 36.5857 21.2489 36.5857 19.0389C36.5857 16.8289 38.3551 15.0453 40.6147 15.0453C41.8365 15.0453 42.7255 15.5123 43.3816 16.1175L44.4651 15.0578C43.5475 14.2008 42.3267 13.5425 40.6147 13.5425C37.5161 13.5425 34.912 16.0083 34.912 19.0389C34.912 22.0695 37.5161 24.5353 40.6147 24.5353C42.2895 24.5353 43.5475 23.9987 44.5364 22.9919C45.5497 22.0008 45.8656 20.6072 45.8656 19.4819C45.8656 19.1325 45.8358 18.8111 45.7826 18.5428H40.6147ZM79.157 19.7087C78.8582 18.9172 77.9362 17.4581 76.0583 17.4581C74.1975 17.4581 72.6482 18.8923 72.6482 20.9972C72.6482 22.9795 74.1815 24.5353 76.237 24.5353C77.899 24.5353 78.8581 23.5442 79.2527 22.967L78.0192 22.1631C77.6077 22.7517 77.0473 23.1417 76.237 23.1417C75.432 23.1417 74.8546 22.7808 74.4846 22.0695L79.3239 20.1111L79.157 19.7087ZM74.223 20.887C74.1815 19.5225 75.3066 18.8236 76.1126 18.8236C76.7442 18.8236 77.2801 19.1325 77.4588 19.5745L74.223 20.887ZM70.2897 24.32H71.8804V13.92H70.2897V24.32ZM67.6845 18.2464H67.6313C67.274 17.8325 66.5924 17.4581 65.729 17.4581C63.917 17.4581 62.2603 19.0139 62.2603 21.0087C62.2603 22.9919 63.917 24.5353 65.729 24.5353C66.5924 24.5353 67.274 24.1578 67.6313 23.7314H67.6845V24.2389C67.6845 25.5919 66.9454 26.3189 65.7534 26.3189C64.7815 26.3189 64.1786 25.6325 63.9298 25.0553L62.5463 25.62C62.9451 26.5581 64.001 27.7125 65.7534 27.7125C67.6185 27.7125 69.1923 26.6392 69.1923 24.0278V17.6734H67.6845V18.2464ZM65.8651 23.1417C64.7688 23.1417 63.8511 22.2442 63.8511 21.0087C63.8511 19.7617 64.7688 18.8517 65.8651 18.8517C66.9454 18.8517 67.7972 19.7617 67.7972 21.0087C67.7972 22.2442 66.9454 23.1417 65.8651 23.1417ZM86.6047 13.92H82.8V24.32H84.3865V20.3795H86.6047C88.3666 20.3795 90.0946 19.1325 90.0946 17.1492C90.0946 15.167 88.3624 13.92 86.6047 13.92ZM86.6461 18.9328H84.3865V15.3667H86.6461C87.8307 15.3667 88.507 16.3287 88.507 17.1492C88.507 17.9542 87.8307 18.9328 86.6461 18.9328ZM96.4534 17.4383C95.3071 17.4383 94.1151 17.9334 93.6249 19.0306L95.0328 19.6078C95.3358 19.0306 95.893 18.8434 96.4821 18.8434C97.3052 18.8434 98.1399 19.327 98.1526 20.1808V20.29C97.8655 20.1278 97.2509 19.8875 96.4949 19.8875C94.9785 19.8875 93.4335 20.7039 93.4335 22.2275C93.4335 23.6211 94.6755 24.5187 96.0717 24.5187C97.1393 24.5187 97.7284 24.0475 98.0984 23.4995H98.1526V24.3034H99.6849V20.3139C99.6849 18.47 98.2771 17.4383 96.4534 17.4383ZM96.262 23.1375C95.7431 23.1375 95.02 22.8859 95.02 22.2567C95.02 21.4517 95.9217 21.1428 96.7022 21.1428C97.4009 21.1428 97.7284 21.2936 98.1526 21.4923C98.0282 22.4553 97.1807 23.1375 96.262 23.1375ZM105.268 17.6661L103.444 22.1745H103.39L101.504 17.6661H99.7934L102.626 23.9664L101.01 27.4723H102.668L107.033 17.6661H105.268ZM90.9665 24.32H92.5573V13.92H90.9665V24.32Z"
    fill="white" />
  <path
    d="M8.8768 5.63229C8.62691 5.88813 8.4823 6.28645 8.4823 6.80229V25.202C8.4823 25.7178 8.62691 26.1161 8.8768 26.372L8.93848 26.4281L19.4805 16.1217V15.8784L8.93848 5.57197L8.8768 5.63229Z"
    fill="url(#paint0_linear)" />
  <path
    d="M22.9908 19.5587L19.4807 16.1215V15.8782L22.9951 12.441L23.0738 12.4857L27.2357 14.8018C28.4235 15.4591 28.4235 16.5407 27.2357 17.2021L23.0738 19.514L22.9908 19.5587Z"
    fill="url(#paint1_linear)" />
  <path
    d="M23.0738 19.5141L19.4807 15.9999L8.87695 26.3718C9.27146 26.7774 9.91478 26.8263 10.6464 26.4207L23.0738 19.5141Z"
    fill="url(#paint2_linear)" />
  <path d="M23.0738 12.4858L10.6464 5.5792C9.91478 5.17776 9.27146 5.22664 8.87695 5.63224L19.4807 16L23.0738 12.4858Z"
    fill="url(#paint3_linear)" />
  <defs>
    <linearGradient id="paint0_linear" x1="18.5445" y1="25.3936" x2="4.58501" y2="11.1206"
      gradientUnits="userSpaceOnUse">
      <stop stop-color="#00A0FF" />
      <stop offset="0.0066" stop-color="#00A1FF" />
      <stop offset="0.2601" stop-color="#00BEFF" />
      <stop offset="0.5122" stop-color="#00D2FF" />
      <stop offset="0.7604" stop-color="#00DFFF" />
      <stop offset="1" stop-color="#00E3FF" />
    </linearGradient>
    <linearGradient id="paint1_linear" x1="28.7824" y1="15.9987" x2="8.19856" y2="15.9987"
      gradientUnits="userSpaceOnUse">
      <stop stop-color="#FFE000" />
      <stop offset="0.4087" stop-color="#FFBD00" />
      <stop offset="0.7754" stop-color="#FFA500" />
      <stop offset="1" stop-color="#FF9C00" />
    </linearGradient>
    <linearGradient id="paint2_linear" x1="21.12" y1="14.0896" x2="2.18972" y2="-5.26572"
      gradientUnits="userSpaceOnUse">
      <stop stop-color="#FF3A44" />
      <stop offset="1" stop-color="#C31162" />
    </linearGradient>
    <linearGradient id="paint3_linear" x1="6.20777" y1="32.4934" x2="14.661" y2="23.8505"
      gradientUnits="userSpaceOnUse">
      <stop stop-color="#32A071" />
      <stop offset="0.0685" stop-color="#2DA771" />
      <stop offset="0.4762" stop-color="#15CF74" />
      <stop offset="0.8009" stop-color="#06E775" />
      <stop offset="1" stop-color="#00F076" />
    </linearGradient>
  </defs>
</svg>