<svg viewBox="0 0 116 32" fill="none" xmlns="http://www.w3.org/2000/svg">
  <path
    d="M0 6C0 2.68629 2.68629 0 6 0H110C113.314 0 116 2.68629 116 6V26C116 29.3137 113.314 32 110 32H6C2.68629 32 0 29.3137 0 26V6Z"
    fill="black" />
  <path
    d="M25.8878 15.8202C25.8629 13.1387 28.1554 11.8341 28.2602 11.7734C26.9619 9.9405 24.9495 9.69007 24.2423 9.6701C22.5521 9.49788 20.9127 10.6494 20.0517 10.6494C19.1735 10.6494 17.8477 9.68674 16.4187 9.71503C14.5799 9.74248 12.8597 10.7733 11.9162 12.3741C9.96914 15.638 11.4213 20.4345 13.2867 23.0728C14.2199 24.3649 15.3103 25.8076 16.7375 25.7568C18.1338 25.7011 18.6554 24.8949 20.3404 24.8949C22.0099 24.8949 22.4997 25.7568 23.9553 25.7244C25.4538 25.7011 26.3973 24.4264 27.2978 23.1227C28.3762 21.6417 28.8093 20.1833 28.8264 20.1084C28.7912 20.0967 25.9161 19.0343 25.8878 15.8202Z"
    fill="white" />
  <path
    d="M23.1381 7.93455C23.8891 7.02517 24.403 5.78799 24.2603 4.5325C23.1734 4.57909 21.814 5.2605 21.0312 6.14991C20.3387 6.93365 19.72 8.21826 19.8798 9.42632C21.1008 9.51452 22.3545 8.82978 23.1381 7.93455Z"
    fill="white" />
  <path
    d="M46.0949 25.5714H44.1436L43.0746 22.3191H39.3592L38.341 25.5714H36.4412L40.1222 14.4991H42.3958L46.0949 25.5714ZM42.7524 20.9546L41.7858 18.0634C41.6835 17.768 41.4919 17.0725 41.2092 15.9776H41.1748C41.0623 16.4485 40.881 17.144 40.6318 18.0634L39.6823 20.9546H42.7524Z"
    fill="white" />
  <path
    d="M55.5614 21.4812C55.5614 22.839 55.1825 23.9123 54.4246 24.7002C53.7458 25.4016 52.9028 25.7518 51.8966 25.7518C50.8105 25.7518 50.0303 25.3741 49.5552 24.6187H49.5208V28.8244H47.6889V20.2157C47.6889 19.3621 47.6657 18.486 47.621 17.5874H49.2321L49.3343 18.8529H49.3687C49.9796 17.8994 50.9068 17.4235 52.151 17.4235C53.1237 17.4235 53.9357 17.7954 54.5853 18.5401C55.2366 19.2855 55.5614 20.2656 55.5614 21.4812ZM53.6951 21.5461C53.6951 20.769 53.5146 20.1284 53.152 19.6242C52.7559 19.0983 52.224 18.8354 51.5572 18.8354C51.1053 18.8354 50.6945 18.9819 50.3276 19.2706C49.9599 19.5618 49.7193 19.942 49.6067 20.4129C49.55 20.6325 49.5217 20.8123 49.5217 20.9537V22.2849C49.5217 22.8656 49.7055 23.3557 50.0733 23.7559C50.4411 24.1561 50.9188 24.3557 51.5065 24.3557C52.1965 24.3557 52.7336 24.0978 53.1177 23.5837C53.5026 23.0686 53.6951 22.3897 53.6951 21.5461Z"
    fill="white" />
  <path
    d="M65.045 21.4812C65.045 22.839 64.6661 23.9123 63.9074 24.7002C63.2294 25.4016 62.3865 25.7518 61.3803 25.7518C60.2942 25.7518 59.514 25.3741 59.0397 24.6187H59.0053V28.8244H57.1734V20.2157C57.1734 19.3621 57.1502 18.486 57.1055 17.5874H58.7166L58.8188 18.8529H58.8532C59.4633 17.8994 60.3904 17.4235 61.6355 17.4235C62.6073 17.4235 63.4193 17.7954 64.0706 18.5401C64.7194 19.2855 65.045 20.2656 65.045 21.4812ZM63.1787 21.5461C63.1787 20.769 62.9974 20.1284 62.6348 19.6242C62.2387 19.0983 61.7085 18.8354 61.0409 18.8354C60.588 18.8354 60.1782 18.9819 59.8104 19.2706C59.4427 19.5618 59.2029 19.942 59.0904 20.4129C59.0345 20.6325 59.0053 20.8123 59.0053 20.9537V22.2849C59.0053 22.8656 59.1892 23.3557 59.5552 23.7559C59.923 24.1552 60.4007 24.3557 60.9902 24.3557C61.6802 24.3557 62.2172 24.0978 62.6013 23.5837C62.9862 23.0686 63.1787 22.3897 63.1787 21.5461Z"
    fill="white" />
  <path
    d="M75.6484 22.4664C75.6484 23.4082 75.3107 24.1745 74.6327 24.766C73.8877 25.4125 72.8506 25.7353 71.5179 25.7353C70.2874 25.7353 69.301 25.5057 68.5543 25.0456L68.9788 23.5671C69.7831 24.038 70.6655 24.2743 71.627 24.2743C72.317 24.2743 72.8541 24.1229 73.2399 23.8217C73.6239 23.5205 73.8156 23.1161 73.8156 22.612C73.8156 22.1627 73.6575 21.7841 73.3404 21.4771C73.025 21.1701 72.4983 20.8847 71.7628 20.621C69.7607 19.898 68.7605 18.8388 68.7605 17.4461C68.7605 16.5359 69.1111 15.7896 69.8131 15.2088C70.5126 14.6273 71.4457 14.3369 72.6126 14.3369C73.6532 14.3369 74.5176 14.5124 75.2076 14.8627L74.7496 16.3087C74.1051 15.9693 73.3765 15.7995 72.561 15.7995C71.9166 15.7995 71.4131 15.9535 71.0522 16.2596C70.7472 16.5334 70.5942 16.867 70.5942 17.2622C70.5942 17.6998 70.7686 18.0617 71.1192 18.3463C71.4242 18.6092 71.9785 18.8937 72.7827 19.2008C73.7666 19.5843 74.4892 20.0328 74.9541 20.5469C75.4172 21.0594 75.6484 21.7009 75.6484 22.4664Z"
    fill="white" />
  <path
    d="M81.7052 18.9187H79.686V22.795C79.686 23.7809 80.0417 24.2735 80.7549 24.2735C81.0823 24.2735 81.3538 24.246 81.5686 24.1911L81.6193 25.5381C81.2584 25.6687 80.7832 25.7345 80.1946 25.7345C79.4711 25.7345 78.9058 25.5206 78.4976 25.0938C78.0912 24.6662 77.8867 23.949 77.8867 22.9414V18.9171H76.6837V17.5859H77.8867V16.124L79.686 15.5982V17.5859H81.7052V18.9187Z"
    fill="white" />
  <path
    d="M90.8159 21.5137C90.8159 22.7409 90.4533 23.7485 89.7298 24.5364C88.9711 25.3476 87.964 25.752 86.7087 25.752C85.4988 25.752 84.5356 25.3634 83.8173 24.5863C83.0989 23.8092 82.7397 22.8283 82.7397 21.646C82.7397 20.4089 83.1092 19.3955 83.8508 18.6076C84.5906 17.8188 85.5891 17.4245 86.8444 17.4245C88.0543 17.4245 89.0278 17.813 89.7625 18.5909C90.4653 19.3456 90.8159 20.3198 90.8159 21.5137ZM88.9152 21.5712C88.9152 20.8348 88.7528 20.2033 88.4237 19.6767C88.0397 19.0394 87.4906 18.7216 86.7791 18.7216C86.0427 18.7216 85.4834 19.0402 85.0993 19.6767C84.7702 20.2042 84.6078 20.8457 84.6078 21.6044C84.6078 22.3408 84.7702 22.9722 85.0993 23.4981C85.4954 24.1354 86.0488 24.4532 86.7628 24.4532C87.4622 24.4532 88.0113 24.1287 88.4074 23.4814C88.7451 22.9448 88.9152 22.3066 88.9152 21.5712Z"
    fill="white" />
  <path
    d="M96.7706 19.1474C96.5893 19.115 96.3959 19.0983 96.1932 19.0983C95.5487 19.0983 95.0503 19.3338 94.6998 19.8055C94.3947 20.2215 94.2418 20.7474 94.2418 21.3822V25.5713H92.4107L92.4279 20.1017C92.4279 19.1815 92.4047 18.3437 92.3591 17.5883H93.9548L94.0218 19.1158H94.0725C94.2658 18.5908 94.5709 18.1682 94.9885 17.8512C95.3966 17.5658 95.8374 17.4235 96.3126 17.4235C96.4819 17.4235 96.6348 17.4352 96.7706 17.456V19.1474Z"
    fill="white" />
  <path
    d="M104.964 21.2016C104.964 21.5194 104.942 21.7874 104.897 22.0062H99.4008C99.4223 22.7949 99.6878 23.3981 100.198 23.8141C100.661 24.186 101.26 24.3724 101.996 24.3724C102.809 24.3724 103.552 24.2467 104.219 23.9946L104.506 25.226C103.726 25.5555 102.805 25.7194 101.742 25.7194C100.464 25.7194 99.4601 25.355 98.7297 24.627C98.0011 23.899 97.6359 22.9214 97.6359 21.695C97.6359 20.4911 97.9753 19.4885 98.6549 18.689C99.3664 17.8354 100.328 17.4085 101.538 17.4085C102.726 17.4085 103.626 17.8354 104.237 18.689C104.72 19.3671 104.964 20.2057 104.964 21.2016ZM103.217 20.7415C103.229 20.2157 103.109 19.7614 102.861 19.3779C102.544 18.8845 102.057 18.6382 101.401 18.6382C100.802 18.6382 100.315 18.8787 99.943 19.3612C99.6379 19.7448 99.4566 20.2049 99.4008 20.7407H103.217V20.7415Z"
    fill="white" />
  <path
    d="M42.1466 7.68762C42.1466 8.66688 41.8433 9.40403 41.2375 9.89907C40.6764 10.3558 39.879 10.5846 38.8462 10.5846C38.3341 10.5846 37.8958 10.563 37.5289 10.5197V5.16915C38.0075 5.09427 38.5231 5.056 39.0799 5.056C40.0638 5.056 40.8053 5.26317 41.3054 5.6775C41.8656 6.14592 42.1466 6.81568 42.1466 7.68762ZM41.1971 7.71174C41.1971 7.07693 41.0235 6.59021 40.6764 6.25075C40.3293 5.91213 39.8223 5.7424 39.1547 5.7424C38.8711 5.7424 38.6296 5.7607 38.4294 5.79898V9.86662C38.5403 9.88326 38.7431 9.89075 39.0378 9.89075C39.7269 9.89075 40.2588 9.70522 40.6334 9.33414C41.0081 8.96307 41.1971 8.42227 41.1971 7.71174Z"
    fill="white" />
  <path
    d="M47.1811 8.54293C47.1811 9.14613 47.0032 9.64034 46.6475 10.0281C46.2746 10.4266 45.7805 10.6254 45.1635 10.6254C44.5689 10.6254 44.0955 10.4349 43.7423 10.0522C43.39 9.67029 43.2139 9.18856 43.2139 8.60783C43.2139 8.00047 43.3952 7.5021 43.7595 7.11522C44.1238 6.72834 44.6136 6.53448 45.2306 6.53448C45.8252 6.53448 46.3029 6.72501 46.6647 7.1069C47.0084 7.47797 47.1811 7.9572 47.1811 8.54293ZM46.2471 8.57122C46.2471 8.2093 46.1663 7.89896 46.0056 7.64021C45.8166 7.32738 45.5476 7.17096 45.1979 7.17096C44.8362 7.17096 44.5612 7.32738 44.3721 7.64021C44.2106 7.89896 44.1307 8.21429 44.1307 8.58703C44.1307 8.94895 44.2115 9.25928 44.3721 9.51804C44.5672 9.83087 44.8387 9.98728 45.1893 9.98728C45.533 9.98728 45.8028 9.82837 45.997 9.50972C46.1637 9.24597 46.2471 8.93314 46.2471 8.57122Z"
    fill="white" />
  <path
    d="M53.9312 6.61429L52.6638 10.5363H51.8389L51.3139 8.83323C51.1807 8.40808 51.0725 7.98542 50.9883 7.5661H50.9719C50.8938 7.99707 50.7855 8.4189 50.6463 8.83323L50.0886 10.5363H49.2543L48.0625 6.61429H48.9879L49.4459 8.4788C49.5567 8.91976 49.6478 9.33992 49.7209 9.73762H49.7372C49.8042 9.40981 49.9151 8.99214 50.0714 8.48712L50.6463 6.61512H51.3801L51.9309 8.44718C52.0641 8.89397 52.1723 9.32411 52.2557 9.73845H52.2806C52.3416 9.33493 52.4335 8.90478 52.5556 8.44718L53.0471 6.61512H53.9312V6.61429Z"
    fill="white" />
  <path
    d="M58.5996 10.5364H57.6991V8.29C57.6991 7.59777 57.4276 7.25166 56.8828 7.25166C56.6156 7.25166 56.3999 7.34651 56.2324 7.53704C56.0666 7.72757 55.9823 7.95221 55.9823 8.2093V10.5356H55.0818V7.73506C55.0818 7.39061 55.0707 7.01704 55.0492 6.61269H55.8406L55.8827 7.22587H55.9076C56.0124 7.03534 56.1688 6.87809 56.3742 6.75246C56.6182 6.60603 56.8914 6.53198 57.1905 6.53198C57.5685 6.53198 57.883 6.65013 58.1331 6.88725C58.4441 7.17761 58.5996 7.61109 58.5996 8.18683V10.5364Z"
    fill="white" />
  <path d="M61.083 10.5364H60.1833V4.8147H61.083V10.5364Z" fill="white" />
  <path
    d="M66.3846 8.54293C66.3846 9.14613 66.2067 9.64034 65.851 10.0281C65.478 10.4266 64.9831 10.6254 64.367 10.6254C63.7716 10.6254 63.2981 10.4349 62.9458 10.0522C62.5935 9.67029 62.4174 9.18856 62.4174 8.60783C62.4174 8.00047 62.5987 7.5021 62.963 7.11522C63.3273 6.72834 63.8171 6.53448 64.4332 6.53448C65.0286 6.53448 65.5055 6.72501 65.8681 7.1069C66.2118 7.47797 66.3846 7.9572 66.3846 8.54293ZM65.4497 8.57122C65.4497 8.2093 65.3689 7.89896 65.2082 7.64021C65.0201 7.32738 64.7502 7.17096 64.4014 7.17096C64.0388 7.17096 63.7638 7.32738 63.5756 7.64021C63.4141 7.89896 63.3342 8.21429 63.3342 8.58703C63.3342 8.94895 63.415 9.25928 63.5756 9.51804C63.7707 9.83087 64.0422 9.98728 64.3928 9.98728C64.7365 9.98728 65.0054 9.82837 65.1996 9.50972C65.3672 9.24597 65.4497 8.93314 65.4497 8.57122Z"
    fill="white" />
  <path
    d="M70.7427 10.5364H69.9341L69.8671 10.0846H69.8422C69.5655 10.4449 69.1711 10.6254 68.659 10.6254C68.2766 10.6254 67.9673 10.5065 67.7344 10.2702C67.5231 10.0555 67.4174 9.78844 67.4174 9.47144C67.4174 8.99221 67.6236 8.62696 68.0386 8.37404C68.4528 8.12111 69.0353 7.99714 69.7855 8.00296V7.92975C69.7855 7.41308 69.5054 7.15516 68.9443 7.15516C68.5447 7.15516 68.1924 7.2525 67.8882 7.44552L67.7052 6.87311C68.0816 6.64764 68.5464 6.53448 69.0946 6.53448C70.1532 6.53448 70.6843 7.07528 70.6843 8.15688V9.60124C70.6843 9.99311 70.704 10.3051 70.7427 10.5364ZM69.8078 9.18856V8.5837C68.8145 8.56706 68.3179 8.8308 68.3179 9.3741C68.3179 9.57877 68.3746 9.73186 68.4906 9.8342C68.6066 9.93653 68.7544 9.98728 68.9305 9.98728C69.1281 9.98728 69.3129 9.92655 69.4813 9.80591C69.6506 9.68444 69.7545 9.53052 69.7932 9.34165C69.8027 9.29922 69.8078 9.24764 69.8078 9.18856Z"
    fill="white" />
  <path
    d="M75.8596 10.5364H75.0605L75.0184 9.90654H74.9935C74.7383 10.3858 74.3035 10.6254 73.6925 10.6254C73.2045 10.6254 72.798 10.4398 72.4758 10.0688C72.1536 9.69771 71.9929 9.21598 71.9929 8.62443C71.9929 7.98961 72.1673 7.47543 72.5179 7.08273C72.8573 6.71665 73.2732 6.53361 73.7681 6.53361C74.3121 6.53361 74.6927 6.71083 74.9092 7.06609H74.9264V4.8147H75.8278V9.47972C75.8278 9.86161 75.8381 10.2135 75.8596 10.5364ZM74.9264 8.88234V8.22839C74.9264 8.11524 74.9178 8.02372 74.9015 7.95383C74.8508 7.74417 74.7417 7.56779 74.5759 7.42551C74.4083 7.28324 74.2064 7.21169 73.9735 7.21169C73.6375 7.21169 73.3746 7.34065 73.1813 7.5994C72.9897 7.85815 72.8926 8.18846 72.8926 8.59198C72.8926 8.97969 72.9845 9.29418 73.1692 9.5363C73.3643 9.79422 73.6272 9.92318 73.9563 9.92318C74.2519 9.92318 74.4882 9.81585 74.6678 9.60036C74.8414 9.40151 74.9264 9.1619 74.9264 8.88234Z"
    fill="white" />
  <path
    d="M83.5612 8.54293C83.5612 9.14613 83.3833 9.64034 83.0276 10.0281C82.6547 10.4266 82.1615 10.6254 81.5437 10.6254C80.9499 10.6254 80.4765 10.4349 80.1224 10.0522C79.7701 9.67029 79.594 9.18856 79.594 8.60783C79.594 8.00047 79.7753 7.5021 80.1396 7.11522C80.5039 6.72834 80.9937 6.53448 81.6115 6.53448C82.2053 6.53448 82.6839 6.72501 83.0448 7.1069C83.3885 7.47797 83.5612 7.9572 83.5612 8.54293ZM82.628 8.57122C82.628 8.2093 82.5473 7.89896 82.3866 7.64021C82.1967 7.32738 81.9286 7.17096 81.578 7.17096C81.2171 7.17096 80.9422 7.32738 80.7523 7.64021C80.5907 7.89896 80.5108 8.21429 80.5108 8.58703C80.5108 8.94895 80.5916 9.25928 80.7523 9.51804C80.9473 9.83087 81.2189 9.98728 81.5694 9.98728C81.9131 9.98728 82.1838 9.82837 82.378 9.50972C82.5438 9.24597 82.628 8.93314 82.628 8.57122Z"
    fill="white" />
  <path
    d="M88.4031 10.5364H87.5035V8.29C87.5035 7.59777 87.2319 7.25166 86.6863 7.25166C86.4191 7.25166 86.2034 7.34651 86.0367 7.53704C85.87 7.72757 85.7867 7.95221 85.7867 8.2093V10.5356H84.8853V7.73506C84.8853 7.39061 84.875 7.01704 84.8535 6.61269H85.644L85.6861 7.22587H85.7111C85.8167 7.03534 85.9731 6.87809 86.1776 6.75246C86.4225 6.60603 86.6949 6.53198 86.9948 6.53198C87.372 6.53198 87.6865 6.65013 87.9365 6.88725C88.2484 7.17761 88.4031 7.61109 88.4031 8.18683V10.5364Z"
    fill="white" />
  <path
    d="M94.4634 7.26746H93.4718V9.17274C93.4718 9.65697 93.6479 9.89908 93.9968 9.89908C94.1583 9.89908 94.2924 9.88577 94.3981 9.85831L94.4213 10.5198C94.2434 10.5846 94.0097 10.6171 93.7218 10.6171C93.3661 10.6171 93.0894 10.5123 92.8892 10.3026C92.6882 10.0929 92.5885 9.74017 92.5885 9.24513V7.26746H91.9965V6.61434H92.5885V5.89549L93.4709 5.63757V6.61351H94.4625V7.26746H94.4634Z"
    fill="white" />
  <path
    d="M99.2306 10.5364H98.3292V8.3066C98.3292 7.60356 98.0577 7.25163 97.5138 7.25163C97.0962 7.25163 96.8109 7.45547 96.6545 7.86315C96.6279 7.94884 96.6124 8.05367 96.6124 8.17681V10.5355H95.7128V4.8147H96.6124V7.17841H96.6296C96.9132 6.74827 97.3196 6.53361 97.8463 6.53361C98.2192 6.53361 98.5277 6.65175 98.7726 6.88887C99.0776 7.18423 99.2306 7.62353 99.2306 8.20427V10.5364Z"
    fill="white" />
  <path
    d="M104.148 8.38982C104.148 8.54624 104.136 8.6777 104.115 8.78502H101.414C101.426 9.17274 101.555 9.4681 101.805 9.67277C102.034 9.85581 102.328 9.94733 102.689 9.94733C103.089 9.94733 103.453 9.88576 103.781 9.76179L103.922 10.3675C103.538 10.5289 103.086 10.6096 102.563 10.6096C101.936 10.6096 101.441 10.4307 101.084 10.073C100.725 9.7152 100.547 9.23514 100.547 8.63277C100.547 8.04122 100.713 7.54867 101.047 7.15597C101.396 6.73664 101.868 6.52698 102.463 6.52698C103.046 6.52698 103.488 6.73664 103.787 7.15597C104.029 7.48877 104.148 7.90061 104.148 8.38982ZM103.289 8.16435C103.296 7.9056 103.236 7.68263 103.114 7.49459C102.958 7.25248 102.72 7.13101 102.398 7.13101C102.104 7.13101 101.864 7.24915 101.681 7.48627C101.532 7.67514 101.443 7.90061 101.414 8.16435H103.289Z"
    fill="white" />
</svg>